# xmcd CD database file
#
# Track frame offsets:
#	150
#	17901
#	37966
#	57291
#	77460
#	96771
#	115284
#	141578
#	159106
#	178400
#	194809
#	215578
#	236231
#	257124
#	274412
#	291232
#	305866
#
# Disc length: 4383 seconds
#
# Revision: 0
# Processed by: cddbd v1.5.2PL0 Copyright (c) Steve Scherf et al.
# Submitted via: CDex 1.70beta2
#
DISCID=0c111d11
DTITLE=Halie Loren - After Dark - VICJ-61641
DYEAR=2010
DGENRE=Jazz
TTITLE0=After Dark
TTITLE1=Waters of March
TTITLE2=Gray to Grand
TTITLE3=La Vie en Rose
TTITLE4=Thirsty
TTITLE5=Bye Bye Blackbird
TTITLE6=Ode to Billie Joe
TTITLE7=Tango Lullaby
TTITLE8=Beyond the Sea (feat. John Shipe)
TTITLE9=In a Sentimental Mood
TTITLE10=Happier Than the Morning Sun
TTITLE11=Give Me One Reason
TTITLE12=It's You
TTITLE13=Time to Say Goodbye
TTITLE14=Carey
TTITLE15=I Fall in Love Too Easily
TTITLE16=My Foolish Heart
EXTD=YEAR: 2010
EXTT0=
EXTT1=
EXTT2=
EXTT3=
EXTT4=
EXTT5=
EXTT6=
EXTT7=
EXTT8=
EXTT9=
EXTT10=
EXTT11=
EXTT12=
EXTT13=
EXTT14=
EXTT15=
EXTT16=
PLAYORDER=
